# xmcd CD database file
#
# Track frame offsets:
#	150
#	12402
#	34497
#	50265
#	63892
#	80520
#	102122
#	118262
#	137590
#
# Disc length: 2046 seconds
#
# Revision: 0
# Processed by: cddbd v1.5.1PL0 Copyright (c) Steve Scherf et al.
# Submitted via: CDex 1.51
#
DISCID=7407fc09
DTITLE=小川美潮 - 小川美潮［＋２]
DYEAR=1900
DGENRE=JPop
TTITLE0=おーい
TTITLE1=行っといで
TTITLE2=時計屋
TTITLE3=ポテトロイド
TTITLE4=おかしな午後
TTITLE5=光の糸　金の糸
TTITLE6=花の子供
TTITLE7=これからのむこう（ボーナス・トラック）
TTITLE8=へんなかさ（ボーナス・トラック）
EXTD=
EXTT0=
EXTT1=
EXTT2=
EXTT3=
EXTT4=
EXTT5=
EXTT6=
EXTT7=
EXTT8=
PLAYORDER=
